<?xml version="1.0" encoding="UTF-8"?>
<svg width="72px" height="72px" viewBox="0 0 72 72" version="1.1" xmlns="http://www.w3.org/2000/svg" xmlns:xlink="http://www.w3.org/1999/xlink">
    <!-- Generator: Sketch 53.2 (72643) - https://sketchapp.com -->
    <title>Press@1,5x</title>
    <desc>Created with Sketch.</desc>
    <g id="Page-1" stroke="none" stroke-width="1" fill="none" fill-rule="evenodd">
        <g id="Design-UX-Homepage-Gatling" transform="translate(-651.000000, -4281.000000)" fill-rule="nonzero">
            <g id="Press" transform="translate(651.000000, 4281.000000)">
                <circle id="Oval" fill="#FF9E2A" cx="36" cy="36" r="36"></circle>
                <rect id="Rectangle" fill="#FFFFFF" x="33" y="48" width="6" height="5" rx="2"></rect>
                <path d="M37.13,33.96 C38.7098365,30.9131837 40.9512311,28.2583611 43.69,26.19 L40.21,22.71 C39.82,22.32 39.94,22 40.49,22 L52.01,22 C52.5583755,22.005484 53.0000274,22.451597 53,23 L53,34.5 C53,35.05 52.68,35.18 52.3,34.8 L47.95,30.45 C44.51,32.33 41.6,36.81 40.09,42.47 C39.4606756,39.5213867 38.4663471,36.6626924 37.13,33.96 L37.13,33.96 Z" id="Path" fill="#FFE5C6"></path>
                <path d="M28.3,26.2 L31.8,22.7 C32.18,22.32 32.06,22 31.5,22 L20,22 C19.4477153,22 19,22.4477153 19,23 L19,34.5 C19,35.05 19.32,35.18 19.7,34.8 L24.05,30.45 C29.09,33.2 33,41.53 33,51 L39,51 C39,40.23 34.53,30.67 28.3,26.2 Z" id="Path" fill="#FFFFFF"></path>
            </g>
        </g>
    </g>
</svg>