<svg xmlns="http://www.w3.org/2000/svg" width="20" height="20" viewBox="0 0 20 20">
    <path fill="#71828A" d="M19.556 17.38l-4.123-4.122c.994-1.435 1.49-3.034 1.49-4.796 0-1.146-.222-2.242-.667-3.288-.444-1.045-1.045-1.947-1.803-2.704-.757-.757-1.658-1.358-2.704-1.803C10.703.222 9.608 0 8.462 0S6.22.222 5.174.667C4.13 1.112 3.227 1.713 2.47 2.47c-.757.757-1.358 1.659-1.803 2.704C.222 6.22 0 7.316 0 8.462s.222 2.241.667 3.287c.445 1.046 1.046 1.947 1.803 2.704.757.758 1.659 1.358 2.704 1.803 1.046.445 2.142.667 3.288.667 1.763 0 3.361-.497 4.796-1.49l4.122 4.11c.289.305.649.457 1.082.457.417 0 .777-.152 1.082-.457.304-.304.456-.665.456-1.081 0-.425-.148-.786-.444-1.082zm-7.29-5.114c-1.054 1.053-2.322 1.58-3.804 1.58-1.483 0-2.75-.527-3.804-1.58-1.054-1.054-1.58-2.322-1.58-3.804 0-1.483.526-2.75 1.58-3.804C5.71 3.604 6.979 3.077 8.462 3.077c1.482 0 2.75.527 3.804 1.58 1.054 1.054 1.58 2.322 1.58 3.805 0 1.482-.526 2.75-1.58 3.804z"/>
</svg>
