<?xml version="1.0" encoding="UTF-8"?>
<svg width="1494px" height="726px" viewBox="0 0 1494 726" version="1.1" xmlns="http://www.w3.org/2000/svg" xmlns:xlink="http://www.w3.org/1999/xlink">
    <!-- Generator: Sketch 53.2 (72643) - https://sketchapp.com -->
    <title>Strip-Patterns 01@1,5x</title>
    <desc>Created with Sketch.</desc>
    <g id="Page-1" stroke="none" stroke-width="1" fill="none" fill-rule="evenodd" opacity="0.192452567">
        <g id="Strip-Patterns" transform="translate(-4.000000, -183.000000)" fill="#0074E4">
            <path d="M507.843902,163.20836 L507.843902,163.20836 C509.996047,163.208631 511.740637,164.953222 511.740908,167.105366 L511.769507,394.098904 C511.769779,396.250348 510.025909,397.994657 507.874465,397.994928 C507.874138,397.994928 507.873811,397.994928 507.873483,397.994928 L507.873483,397.994928 C505.721339,397.994657 503.976748,396.250067 503.976477,394.097922 L503.947878,167.104384 C503.947607,164.952941 505.691477,163.208631 507.842921,163.20836 C507.843248,163.20836 507.843575,163.20836 507.843902,163.20836 Z" id="Rectangle-7" opacity="0.222679501" transform="translate(507.858693, 280.601644) scale(-1, 1) rotate(35.000000) translate(-507.858693, -280.601644) "></path>
            <path d="M1291.9263,411.508988 L1291.9263,411.508988 C1293.54041,411.509192 1294.84885,412.817634 1294.84906,414.431743 L1294.87054,584.92045 C1294.87074,586.534033 1293.56284,587.842265 1291.94926,587.842469 C1291.94901,587.842469 1291.94877,587.842469 1291.94852,587.842469 L1291.94852,587.842469 C1290.33441,587.842265 1289.02597,586.533822 1289.02577,584.919714 L1289.00429,414.431006 C1289.00408,412.817424 1290.31198,411.509191 1291.92557,411.508988 C1291.92581,411.508988 1291.92606,411.508988 1291.9263,411.508988 Z" id="Rectangle-7-Copy-11" opacity="0.653669085" transform="translate(1291.937412, 499.675728) scale(-1, 1) rotate(35.000000) translate(-1291.937412, -499.675728) "></path>
            <path d="M1262.12276,345.151603 L1262.12276,345.151603 C1264.54393,345.151909 1266.50659,347.114573 1266.5069,349.535735 L1266.51438,408.963845 C1266.51469,411.384219 1264.55284,413.346567 1262.13246,413.346872 C1262.13209,413.346872 1262.13172,413.346872 1262.13136,413.346872 L1262.13136,413.346872 C1259.71019,413.346567 1257.74753,411.383903 1257.74722,408.96274 L1257.73974,349.534631 C1257.73943,347.114257 1259.70129,345.151908 1262.12166,345.151603 C1262.12203,345.151603 1262.1224,345.151603 1262.12276,345.151603 Z" id="Rectangle-7-Copy-13" transform="translate(1262.127061, 379.249238) scale(-1, 1) rotate(35.000000) translate(-1262.127061, -379.249238) "></path>
            <path d="M86.0184092,406.184393 L86.0184092,406.184393 C91.667789,406.185105 96.2473383,410.764654 96.24805,416.414034 L96.279595,666.789968 C96.2803066,672.437507 91.702648,677.01632 86.0551084,677.017031 C86.0542495,677.017031 86.0533905,677.017031 86.0525316,677.017031 L86.0525316,677.017031 C80.4031518,677.016319 75.8236025,672.43677 75.8228908,666.78739 L75.7913458,416.411456 C75.7906342,410.763917 80.3682928,406.185104 86.0158324,406.184393 C86.0166914,406.184393 86.0175503,406.184393 86.0184092,406.184393 Z" id="Rectangle-7-Copy-8" opacity="0.355189732" transform="translate(86.035470, 541.600712) scale(-1, 1) rotate(35.000000) translate(-86.035470, -541.600712) "></path>
            <path d="M1381.65251,294.529224 L1381.65251,294.529224 C1386.76385,294.529868 1390.90725,298.673269 1390.9079,303.784613 L1390.95466,674.963416 C1390.95531,680.073094 1386.81362,684.215829 1381.70394,684.216473 C1381.70316,684.216473 1381.70238,684.216473 1381.70161,684.216473 L1381.70161,684.216473 C1376.59026,684.215829 1372.44686,680.072427 1372.44622,674.961084 L1372.39945,303.782281 C1372.39881,298.672602 1376.5405,294.529867 1381.65018,294.529224 C1381.65095,294.529224 1381.65173,294.529224 1381.65251,294.529224 Z" id="Rectangle-7-Copy-10" opacity="0.505673363" transform="translate(1381.677057, 489.372848) scale(-1, 1) rotate(35.000000) translate(-1381.677057, -489.372848) "></path>
            <path d="M937.78254,641.50344 L937.78254,641.50344 C939.086481,641.503607 940.143493,642.560619 940.143659,643.86456 L940.172996,873.928451 C940.173162,875.231963 939.116592,876.288803 937.81308,876.288969 C937.812879,876.288969 937.812679,876.288969 937.812478,876.288969 L937.812478,876.288969 C936.508537,876.288803 935.451525,875.231791 935.451358,873.927849 L935.422022,643.863958 C935.421856,642.560446 936.478426,641.503607 937.781938,641.50344 C937.782138,641.50344 937.782339,641.50344 937.78254,641.50344 Z" id="Rectangle-7-Copy-4" opacity="0.312783062" transform="translate(937.797509, 758.896205) scale(-1, 1) rotate(36.000000) translate(-937.797509, -758.896205) "></path>
            <path d="M897.428073,806.606836 L897.428073,806.606836 C898.732014,806.607002 899.789026,807.664014 899.789193,808.967956 L899.801013,901.6677 C899.801179,902.971211 898.744609,904.028051 897.441097,904.028217 C897.440897,904.028217 897.440696,904.028217 897.440495,904.028217 L897.440495,904.028217 C896.136554,904.028051 895.079542,902.971039 895.079376,901.667098 L895.067555,808.967354 C895.067389,807.663842 896.123959,806.607002 897.427471,806.606836 C897.427672,806.606836 897.427872,806.606836 897.428073,806.606836 Z" id="Rectangle-7-Copy-9" transform="translate(897.434284, 855.317527) scale(-1, 1) rotate(36.000000) translate(-897.434284, -855.317527) "></path>
            <path d="M244.819377,406.167864 L244.819377,406.167864 C246.123319,406.16803 247.180331,407.225042 247.180497,408.528984 L247.192318,501.228728 C247.192484,502.532239 246.135914,503.589079 244.832402,503.589245 C244.832201,503.589245 244.832,503.589245 244.8318,503.589245 L244.8318,503.589245 C243.527858,503.589079 242.470846,502.532067 242.47068,501.228125 L242.458859,408.528382 C242.458693,407.22487 243.515264,406.16803 244.818775,406.167864 C244.818976,406.167864 244.819177,406.167864 244.819377,406.167864 Z" id="Rectangle-7-Copy-15" transform="translate(244.825589, 454.878555) scale(-1, 1) rotate(36.000000) translate(-244.825589, -454.878555) "></path>
            <path d="M220.920752,775.404546 L220.920752,775.404546 C222.763536,775.404781 224.257349,776.898593 224.257583,778.741377 L224.26605,845.134601 C224.266285,846.976778 222.773096,848.470347 220.93092,848.470582 C220.930636,848.470582 220.930353,848.470582 220.930069,848.470582 L220.930069,848.470582 C219.087286,848.470347 217.593473,846.976534 217.593238,845.133751 L217.584772,778.740526 C217.584537,776.89835 219.077725,775.404781 220.919902,775.404546 C220.920185,775.404546 220.920469,775.404546 220.920752,775.404546 Z" id="Rectangle-7-Copy-14" opacity="0.169044384" transform="translate(220.925411, 811.937564) scale(-1, 1) rotate(36.000000) translate(-220.925411, -811.937564) "></path>
            <path d="M1069.54658,695.018688 L1069.54658,695.018688 C1071.69874,695.018963 1073.44334,696.763561 1073.44361,698.915718 L1073.47256,925.908182 C1073.47283,928.059628 1071.72896,929.803943 1069.57751,929.804217 C1069.57718,929.804217 1069.57685,929.804217 1069.57652,929.804217 L1069.57652,929.804217 C1067.42436,929.803943 1065.67977,928.059344 1065.67949,925.907188 L1065.65055,698.914724 C1065.65027,696.763277 1067.39414,695.018963 1069.54559,695.018688 C1069.54592,695.018688 1069.54625,695.018688 1069.54658,695.018688 Z" id="Rectangle-7-Copy-5" opacity="0.312783062" transform="translate(1069.561551, 812.411453) scale(-1, 1) rotate(36.000000) translate(-1069.561551, -812.411453) "></path>
            <path d="M404.007069,566.482027 L404.007069,566.482027 C405.311011,566.482193 406.368023,567.539205 406.368189,568.843147 L406.397525,798.907038 C406.397692,800.21055 405.341121,801.26739 404.03761,801.267556 C404.037409,801.267556 404.037208,801.267556 404.037008,801.267556 L404.037008,801.267556 C402.733066,801.26739 401.676054,800.210378 401.675888,798.906436 L401.646551,568.842545 C401.646385,567.539033 402.702955,566.482193 404.006467,566.482027 C404.006668,566.482027 404.006868,566.482027 404.007069,566.482027 Z" id="Rectangle-7-Copy-6" transform="translate(404.022038, 683.874792) scale(-1, 1) rotate(36.000000) translate(-404.022038, -683.874792) "></path>
            <path d="M282.147925,442.844994 L282.147925,442.844994 C285.376159,442.845405 287.993057,445.462303 287.993468,448.690537 L288.021916,671.786469 C288.022328,675.013639 285.406523,677.630111 282.179354,677.630522 C282.178857,677.630523 282.17836,677.630523 282.177863,677.630522 L282.177863,677.630522 C278.949629,677.630111 276.332731,675.013213 276.332319,671.784979 L276.303871,448.689047 C276.30346,445.461877 278.919264,442.845405 282.146434,442.844994 C282.146931,442.844994 282.147428,442.844994 282.147925,442.844994 Z" id="Rectangle-7-Copy-7" opacity="0.143965127" transform="translate(282.162894, 560.237758) scale(-1, 1) rotate(36.000000) translate(-282.162894, -560.237758) "></path>
        </g>
    </g>
</svg>