<?xml version="1.0" encoding="UTF-8"?>
<svg width="1494px" height="660px" viewBox="0 0 1494 660" version="1.1" xmlns="http://www.w3.org/2000/svg" xmlns:xlink="http://www.w3.org/1999/xlink">
    <!-- Generator: Sketch 53.2 (72643) - https://sketchapp.com -->
    <title>Strip-Patterns 02@1,5x</title>
    <desc>Created with Sketch.</desc>
    <g id="Page-1" stroke="none" stroke-width="1" fill="none" fill-rule="evenodd" opacity="0.192452567">
        <g id="Strip-Patterns-02" transform="translate(-5.000000, -1.000000)" fill="#0074E4">
            <path d="M508.843902,-18.7916397 L508.843902,-18.7916397 C510.996047,-18.7913685 512.740637,-17.0467783 512.740908,-14.8946337 L512.769507,212.098904 C512.769779,214.250348 511.025909,215.994657 508.874465,215.994928 C508.874138,215.994928 508.873811,215.994928 508.873483,215.994928 L508.873483,215.994928 C506.721339,215.994657 504.976748,214.250067 504.976477,212.097922 L504.947878,-14.8956156 C504.947607,-17.0470592 506.691477,-18.7913687 508.842921,-18.7916397 C508.843248,-18.7916398 508.843575,-18.7916398 508.843902,-18.7916397 Z" id="Rectangle-7" opacity="0.222679501" transform="translate(508.858693, 98.601644) scale(-1, 1) rotate(35.000000) translate(-508.858693, -98.601644) "></path>
            <path d="M1292.9263,229.508988 L1292.9263,229.508988 C1294.54041,229.509192 1295.84885,230.817634 1295.84906,232.431743 L1295.87054,402.92045 C1295.87074,404.534033 1294.56284,405.842265 1292.94926,405.842469 C1292.94901,405.842469 1292.94877,405.842469 1292.94852,405.842469 L1292.94852,405.842469 C1291.33441,405.842265 1290.02597,404.533822 1290.02577,402.919714 L1290.00429,232.431006 C1290.00408,230.817424 1291.31198,229.509191 1292.92557,229.508988 C1292.92581,229.508988 1292.92606,229.508988 1292.9263,229.508988 Z" id="Rectangle-7-Copy-11" opacity="0.653669085" transform="translate(1292.937412, 317.675728) scale(-1, 1) rotate(35.000000) translate(-1292.937412, -317.675728) "></path>
            <path d="M1263.12276,163.151603 L1263.12276,163.151603 C1265.54393,163.151909 1267.50659,165.114573 1267.5069,167.535735 L1267.51438,226.963845 C1267.51469,229.384219 1265.55284,231.346567 1263.13246,231.346872 C1263.13209,231.346872 1263.13172,231.346872 1263.13136,231.346872 L1263.13136,231.346872 C1260.71019,231.346567 1258.74753,229.383903 1258.74722,226.96274 L1258.73974,167.534631 C1258.73943,165.114257 1260.70129,163.151908 1263.12166,163.151603 C1263.12203,163.151603 1263.1224,163.151603 1263.12276,163.151603 Z" id="Rectangle-7-Copy-13" transform="translate(1263.127061, 197.249238) scale(-1, 1) rotate(35.000000) translate(-1263.127061, -197.249238) "></path>
            <path d="M87.0184092,224.184393 L87.0184092,224.184393 C92.667789,224.185105 97.2473383,228.764654 97.24805,234.414034 L97.279595,484.789968 C97.2803066,490.437507 92.702648,495.01632 87.0551084,495.017031 C87.0542495,495.017031 87.0533905,495.017031 87.0525316,495.017031 L87.0525316,495.017031 C81.4031518,495.016319 76.8236025,490.43677 76.8228908,484.78739 L76.7913458,234.411456 C76.7906342,228.763917 81.3682928,224.185104 87.0158324,224.184393 C87.0166914,224.184393 87.0175503,224.184393 87.0184092,224.184393 Z" id="Rectangle-7-Copy-8" opacity="0.355189732" transform="translate(87.035470, 359.600712) scale(-1, 1) rotate(35.000000) translate(-87.035470, -359.600712) "></path>
            <path d="M1382.65251,112.529224 L1382.65251,112.529224 C1387.76385,112.529868 1391.90725,116.673269 1391.9079,121.784613 L1391.95466,492.963416 C1391.95531,498.073094 1387.81362,502.215829 1382.70394,502.216473 C1382.70316,502.216473 1382.70238,502.216473 1382.70161,502.216473 L1382.70161,502.216473 C1377.59026,502.215829 1373.44686,498.072427 1373.44622,492.961084 L1373.39945,121.782281 C1373.39881,116.672602 1377.5405,112.529867 1382.65018,112.529224 C1382.65095,112.529224 1382.65173,112.529224 1382.65251,112.529224 Z" id="Rectangle-7-Copy-10" opacity="0.505673363" transform="translate(1382.677057, 307.372848) scale(-1, 1) rotate(35.000000) translate(-1382.677057, -307.372848) "></path>
            <path d="M225.819377,114.167864 L225.819377,114.167864 C227.123319,114.16803 228.180331,115.225042 228.180497,116.528984 L228.192318,209.228728 C228.192484,210.532239 227.135914,211.589079 225.832402,211.589245 C225.832201,211.589245 225.832,211.589245 225.8318,211.589245 L225.8318,211.589245 C224.527858,211.589079 223.470846,210.532067 223.47068,209.228125 L223.458859,116.528382 C223.458693,115.22487 224.515264,114.16803 225.818775,114.167864 C225.818976,114.167864 225.819177,114.167864 225.819377,114.167864 Z" id="Rectangle-7-Copy-15" transform="translate(225.825589, 162.878555) scale(-1, 1) rotate(36.000000) translate(-225.825589, -162.878555) "></path>
            <path d="M221.920752,593.404546 L221.920752,593.404546 C223.763536,593.404781 225.257349,594.898593 225.257583,596.741377 L225.26605,663.134601 C225.266285,664.976778 223.773096,666.470347 221.93092,666.470582 C221.930636,666.470582 221.930353,666.470582 221.930069,666.470582 L221.930069,666.470582 C220.087286,666.470347 218.593473,664.976534 218.593238,663.133751 L218.584772,596.740526 C218.584537,594.89835 220.077725,593.404781 221.919902,593.404546 C221.920185,593.404546 221.920469,593.404546 221.920752,593.404546 Z" id="Rectangle-7-Copy-14" opacity="0.169044384" transform="translate(221.925411, 629.937564) scale(-1, 1) rotate(36.000000) translate(-221.925411, -629.937564) "></path>
            <path d="M405.007069,384.482027 L405.007069,384.482027 C406.311011,384.482193 407.368023,385.539205 407.368189,386.843147 L407.397525,616.907038 C407.397692,618.21055 406.341121,619.26739 405.03761,619.267556 C405.037409,619.267556 405.037208,619.267556 405.037008,619.267556 L405.037008,619.267556 C403.733066,619.26739 402.676054,618.210378 402.675888,616.906436 L402.646551,386.842545 C402.646385,385.539033 403.702955,384.482193 405.006467,384.482027 C405.006668,384.482027 405.006868,384.482027 405.007069,384.482027 Z" id="Rectangle-7-Copy-6" transform="translate(405.022038, 501.874792) scale(-1, 1) rotate(36.000000) translate(-405.022038, -501.874792) "></path>
            <path d="M283.147925,260.844994 L283.147925,260.844994 C286.376159,260.845405 288.993057,263.462303 288.993468,266.690537 L289.021916,489.786469 C289.022328,493.013639 286.406523,495.630111 283.179354,495.630522 C283.178857,495.630523 283.17836,495.630523 283.177863,495.630522 L283.177863,495.630522 C279.949629,495.630111 277.332731,493.013213 277.332319,489.784979 L277.303871,266.689047 C277.30346,263.461877 279.919264,260.845405 283.146434,260.844994 C283.146931,260.844994 283.147428,260.844994 283.147925,260.844994 Z" id="Rectangle-7-Copy-7" opacity="0.143965127" transform="translate(283.162894, 378.237758) scale(-1, 1) rotate(36.000000) translate(-283.162894, -378.237758) "></path>
        </g>
    </g>
</svg>