<?xml version="1.0" encoding="UTF-8"?>
<svg width="199px" height="185px" viewBox="0 0 199 185" version="1.1" xmlns="http://www.w3.org/2000/svg" xmlns:xlink="http://www.w3.org/1999/xlink">
    <!-- Generator: Sketch 54.1 (76490) - https://sketchapp.com -->
    <title>wttj-square</title>
    <desc>Created with Sketch.</desc>
    <g id="Page-1" stroke="none" stroke-width="1" fill="none" fill-rule="evenodd">
        <g id="Design-UX-Our-Company" transform="translate(-1004.000000, -3700.000000)" fill-rule="nonzero">
            <g id="wttj-square" transform="translate(1004.000000, 3700.000000)">
                <path d="M194.460458,26.4527887 C195.45739,38.4787936 192.998894,44.4082508 190.617085,47.2758862 C188.86056,49.4310682 186.257768,50.7190719 183.48068,50.8073679 C181.437197,50.9292989 179.718505,50.1435216 178.229875,48.4139084 C176.384875,46.2733428 175.072173,42.8050845 174.418078,38.7452353 C178.446403,37.8917186 186.651915,34.6808702 188.587134,22.4380991 C189.841193,14.512587 186.724091,11.0352968 183.39046,10.430158 C177.526158,9.34632732 172.031758,16.0525298 170.601771,22.9845304 C169.698612,27.2797864 169.416049,31.6825938 169.762725,36.0582384 C169.591306,41.4232004 168.377847,47.3752373 165.626136,47.7997377 C165.253661,47.8882262 164.861889,47.7790916 164.588606,47.5107162 C162.608276,45.7359434 162.012824,38.8491024 162.22033,34.5273275 L162.22033,24.7276915 C162.22033,15.6957689 159.707702,11.0398128 154.7456,10.9133659 L154.592226,10.9133659 C149.896274,11.134648 146.702484,15.3931995 145.087546,23.5580575 C144.67053,22.9716738 144.180943,22.4405781 143.630492,21.977471 C142.003477,20.6319663 139.859974,20.0868018 137.788745,20.4917198 C136.392189,20.7278517 135.093553,21.3629853 134.049125,22.3206841 L134.049125,18.2563189 L129.781717,19.0240324 C129.781717,27.5230715 129.533612,34.2699177 125.189518,38.8310386 L125.036144,38.9845813 C123.39865,31.1313246 119.419947,25.8476499 114.511977,25.8476499 C113.930722,25.8551839 113.352938,25.9386827 112.793285,26.0960277 L112.793285,26.0960277 C112.206807,26.3049945 111.644262,26.5759791 111.115193,26.9043848 L111.115193,26.9043848 L111.092638,26.9043848 C107.32144,29.0268866 104.470487,34.4731359 103.532199,41.7438336 L103.532199,41.7438336 C103.532199,41.7935092 103.532199,41.8431848 103.532199,41.8928603 C103.314334,43.62751 103.204354,45.3740365 103.202896,47.1223435 C103.202896,47.4655566 103.202896,47.7907058 103.229962,48.1248869 C101.944327,60.4670091 96.9145598,61.9572764 94.5778609,61.9572764 L94.5778609,61.9572764 C91.87126,61.9572764 89.8007102,60.2954026 88.3075687,56.8723039 C87.3106374,54.5736796 86.6430091,51.5976612 86.322728,48.1294029 C86.259574,46.1559278 86.1603319,44.6927563 86.1107109,44.0650377 C86.1107109,43.7715002 86.1107109,43.4869947 86.1107109,43.1934572 C86.1107109,36.4195153 87.7527155,30.6616646 90.4006734,28.1236944 C91.0816579,27.3810406 92.0416283,26.9570103 93.0486314,26.9540604 C93.9850314,26.9691773 94.8580753,27.4305037 95.3988632,28.1959497 C97.1761978,30.5261858 97.541589,35.8053445 96.3326405,41.4006206 L100.816576,40.6554869 C101.687199,35.4305197 101.551869,29.221073 98.7866254,25.603788 C97.4763626,23.8350579 95.4319415,22.761014 93.2335825,22.686477 C91.0633617,22.6338994 88.9688166,23.4860505 87.4504784,25.0392928 C83.9409192,28.403684 81.8433034,35.1911738 81.8433034,43.1934572 C81.8433034,44.6972723 81.9064574,46.4314014 82.0643425,48.2558498 C82.2492936,54.9620523 81.8117264,65.4481144 78.6089153,69.1782985 C78.1418606,69.8173201 77.4212277,70.2225043 76.6330966,70.2892249 C75.8947025,70.3643168 75.1641597,70.0865057 74.6617889,69.5395754 C71.9777429,66.8796742 71.4274007,58.4032148 71.7115938,53.6840353 L71.7115938,32.9738368 C71.7115938,32.3957937 71.7115938,9.1611729 71.7115938,6 L67.4486973,6.76319746 L67.4486973,32.3822459 L67.4486973,32.3822459 L67.4486973,33.0144804 C67.2096142,66.3964663 60.4070238,72.2085085 56.3696774,72.7007483 C54.9577339,72.8678388 53.6630764,72.3168916 52.467661,70.9982309 C50.9835415,69.3860327 49.8603021,66.9338657 49.1520749,64.0075228 C54.3758147,62.110819 61.7287473,57.1387457 62.8294317,47.6416791 C64.0022921,37.5530215 58.8462173,35.9227595 57.2403007,35.6608338 C52.6841891,34.9202161 46.639447,39.5400445 44.8350463,48.2739136 C42.7735186,58.2406402 44.6230292,68.7718619 49.3460479,73.8884461 C51.2271356,75.9386925 53.4736144,76.9999434 55.8824892,76.9999434 C56.2233342,77.001244 56.5638968,76.9801242 56.9019756,76.93672 C61.9317424,76.3270652 65.6533187,72.2220564 68.1163256,64.5268583 C68.7117778,67.6564195 69.7808852,70.7137253 71.6755058,72.5923652 C72.9281334,73.8756456 74.6468584,74.5958272 76.4391235,74.5884201 C76.6060306,74.5884201 76.7729376,74.5884201 76.9443557,74.5884201 C78.8702777,74.4436944 80.6503208,73.5069183 81.8613474,72.0007743 C83.9815182,69.5305434 85.1453566,65.4255346 85.7633638,61.1037597 C88.4428988,65.2810239 91.952458,66.2564715 94.6094379,66.2564715 L94.6094379,66.2564715 C99.2873466,66.2564715 102.851038,63.4836713 105.093006,58.3490233 C107.046269,63.4159318 110.415988,66.5003334 114.566109,66.5003334 C121.23788,66.5003334 125.897745,58.5432096 125.897745,47.1494393 C125.897745,46.1198001 125.852635,45.1217727 125.78497,44.1372931 C126.682574,43.4084671 127.532398,42.6225713 128.329175,41.7844773 C128.871436,41.2157356 129.376227,40.6123375 129.84036,39.9780928 L129.84036,62.9688517 L134.103257,62.1559786 L134.103257,34.4008806 C134.400983,30.0791056 135.573843,25.2154153 138.560126,24.7051117 C139.40424,24.5061503 140.292699,24.7151343 140.959979,25.2696068 C143.247057,27.2069542 143.89213,32.8970654 143.928218,34.70345 L143.928218,56.3800642 L148.191115,55.6168667 L148.191115,37.151101 C148.150777,33.2853737 148.431425,29.4229768 149.030161,25.603788 C149.670723,21.8194124 151.254085,15.4654549 154.695979,15.217077 C156.81615,15.3435239 157.939389,18.6401757 157.939389,24.7593032 L157.939389,34.3873327 C157.835636,36.5820899 157.578509,46.9868647 161.728631,50.7035008 C162.710885,51.6116516 164.000376,52.1134919 165.337432,52.1079648 C165.656198,52.1067378 165.974403,52.0810722 166.289253,52.0311934 C169.212382,51.5795973 171.04836,49.3216167 172.194154,46.4991409 C172.890488,48.2025461 173.842778,49.7894097 175.018041,51.2047725 C177.214899,53.7562906 180.002698,55.0884992 183.137844,55.0884992 C183.34535,55.0884992 183.552856,55.0884992 183.760362,55.0884992 C187.7197,54.9316653 191.42318,53.0877495 193.937182,50.0215907 C198.105348,45.0043577 199.702242,36.8304677 198.718844,25.716687 L194.460458,26.4527887 Z M48.9761458,49.1545261 C50.2076492,43.1844253 53.8570495,39.8697097 56.1937483,39.8697097 C56.3115662,39.8693968 56.4292226,39.8784572 56.5456065,39.8968054 C58.2642981,40.1722791 59.0582344,43.0263666 58.5800682,47.1675031 C57.6778679,54.8039937 51.8902528,58.2903158 48.4258036,59.7038117 C48.0896501,56.1794317 48.2750969,52.6246775 48.9761458,49.1545261 L48.9761458,49.1545261 Z M112.910571,30.6390848 C113.379853,30.3041353 113.936159,30.112744 114.511977,30.0881375 C117.241133,30.0881375 120.231927,34.9608598 121.233369,42.0689828 C118.977869,43.4237712 116.857698,43.7669843 114.917967,43.1166858 C112.211366,42.2134936 110.524252,39.5039168 110.276146,37.2956117 C109.856623,33.533816 111.615914,31.5738888 112.910571,30.6390848 Z M114.511977,62.1921063 C111.200902,62.1921063 107.691343,57.2245489 107.470303,48.0390837 C107.641722,46.3049545 107.73946,44.460937 107.763519,42.5070311 C109.11804,44.6689789 111.162203,46.3096087 113.564667,47.1629872 C115.265314,47.7365142 118.075668,48.1474667 121.571694,46.6571995 C121.571694,46.8107422 121.571694,46.9597689 121.571694,47.1087956 C121.580716,56.9264955 117.940338,62.2101702 114.511977,62.2101702 L114.511977,62.1921063 Z M173.976,32.2061234 L173.93089,32.2061234 C173.937094,29.4045482 174.221177,26.6105131 174.778958,23.8651429 C175.996929,17.9537495 179.822258,14.6119382 182.213089,14.6119382 C182.350705,14.6121534 182.488047,14.6242407 182.62359,14.6480659 C184.324238,14.9551512 185.00991,17.7595632 184.373859,21.7878007 C182.89425,31.1493884 177.115657,33.7731619 174.048176,34.5092636 C174.039154,33.3712414 173.998555,32.5493364 173.976,32.2061234 Z" id="Shape" fill="#FFFFFF"></path>
                <path d="M20.6782277,28.8566676 L12.711095,88.1236156 C10.8089704,62.3696702 6.59161068,36.9264473 4.2218994,23.867094 L0,24.6236358 C3.05520247,41.4296726 9.2064645,79.0631263 9.42890866,111 L14.1002361,110.166903 L22.8799709,44.7170271 L31.4781188,101.498195 L36.5126203,100.59755 C36.9211912,88.0200414 39.0412203,52.1608585 50,0 L45.4603232,0.810580551 C37.8472853,37.4668344 34.565099,66.0217859 33.2031959,84.0031644 L24.7457781,28.1631709 L20.6782277,28.8566676 Z" id="Shape" fill="#FFFFFF"></path>
                <path d="M183.473913,91.8670207 C184.477324,103.936871 181.998307,109.887946 179.605557,112.766037 C177.838263,114.927427 175.220692,116.219888 172.427305,116.310394 C170.365998,116.432769 168.636134,115.639595 167.142368,113.908208 C165.285375,111.759838 163.964141,108.274403 163.305794,104.204284 C167.355763,103.347656 175.619152,100.125101 177.566951,87.8376941 C178.824621,79.8832866 175.691798,76.3933186 172.336498,75.7859735 C166.411376,74.7027237 160.903963,81.4288438 159.46014,88.3815852 C158.460838,93.1120568 158.221753,97.9711075 158.751849,102.77657 C159.006108,109.715714 158.683745,121.631462 155.224018,125.629061 C154.775182,126.247708 154.079368,126.641318 153.317082,126.707779 C152.614512,126.772947 151.92153,126.508296 151.441928,125.991655 C148.649629,123.235941 148.073008,114.157491 148.363589,109.081174 L148.363589,63 L144.068442,63.797707 L144.068442,108.899877 C143.968555,110.712848 143.410095,124.088037 148.418072,129.037446 C149.65437,130.296047 151.346975,131.003613 153.112767,130.999986 L153.607663,130.999986 C155.514441,130.853046 157.275731,129.926369 158.47489,128.439165 C160.972068,125.547478 162.175254,120.348785 162.720092,115.127431 C163.070426,115.684905 163.460381,116.216564 163.886956,116.718312 C166.098093,119.279133 168.904014,120.620731 172.036837,120.620731 C172.245692,120.620731 172.454547,120.620731 172.663402,120.620731 C176.64715,120.458162 180.372704,118.608516 182.906372,115.535349 C187.097091,110.495291 188.704366,102.2916 187.719115,91.1373001 L183.473913,91.8670207 Z M162.856302,99.3047316 L162.856302,99.3047316 C162.729821,95.9317914 163.004153,92.5557704 163.67356,89.2472785 C164.903988,83.314333 168.754183,79.9603378 171.160554,79.9603378 C171.29915,79.9584958 171.437576,79.9706441 171.573724,79.9965972 C173.285426,80.3048022 173.975555,83.1194387 173.33537,87.1623626 C171.841603,96.5807437 165.998206,99.2050183 162.892625,99.9347388 C162.892625,99.6627933 162.865383,99.4497693 162.856302,99.3047316 L162.856302,99.3047316 Z" id="Shape" fill="#00C29A"></path>
                <path d="M50.7928389,87.765625 L50.7928389,154.762316 C50.7928389,169.327206 42.5254334,180.739522 31.9696884,180.739522 C19.1345079,180.739522 12.2071611,168.331893 12.2071611,156.662868 C12.2071611,147.083548 14.9050867,139.747059 19.7978592,136.004504 C23.1012598,133.482445 26.31562,132.58171 29.6546367,133.266268 C33.5501563,134.063419 36.871365,136.909743 39.1953206,139.508364 L42.3785166,136.711581 C39.6093587,133.604044 35.5268542,130.13171 30.504973,129.095864 C25.9861703,128.168107 21.5252439,129.34807 17.2602065,132.608732 C11.2855925,137.17546 8,145.718934 8,156.662868 C8,172.817555 18.3019797,185 31.9696884,185 C44.8805532,185 55,171.718658 55,154.762316 L55,87 L50.7928389,87.765625 Z" id="Shape" fill="#00C29A"></path>
                <path d="M140.107655,139.696088 L140.107655,84 L135.830697,84.790496 L135.830697,92.5283223 C133.902672,89.7006053 131.445118,88.0383052 128.693383,88.0383052 C122.402408,88.0383052 117.627604,96.6795555 117.351525,108.293071 L117.351525,108.293071 L117.351525,108.48279 C117.351525,108.767368 117.351525,109.04743 117.351525,109.336525 C117.350826,110.846181 117.439993,112.354545 117.618552,113.853645 C117.948941,120.060168 118.252175,130.566989 114.328237,131.389105 C113.42306,131.574307 113.006679,131.348451 112.739652,131.131629 C110.653221,129.428675 110.653221,122.612341 110.653221,119.698798 C110.653221,118.885717 110.712058,117.774505 110.784472,116.487126 C111.114861,110.520011 111.567449,102.353058 107.779287,99.0510435 C106.797171,98.1927907 105.063758,97.2803325 102.452325,97.7817328 C100.198436,98.2153763 98.3186871,99.6126719 96.8130773,101.97362 L96.8130773,97.2306441 L92.5361197,98.0256572 L92.5361197,114.517662 C92.1604716,137.893757 88.4628269,141.114464 86.7927768,141.353871 C86.2238007,141.462685 85.6382359,141.277501 85.2358737,140.861505 C83.1177614,138.914626 82.2125852,132.96558 81.9908171,127.441142 C82.0224982,125.774325 82.03155,124.093956 82.03155,122.413587 L82.03155,108.640889 L77.7545925,109.431385 L77.7545925,120.832596 C77.7093337,121.595989 77.5916608,124.143644 77.7048078,127.332731 C77.2522197,149.444033 73.5364714,151.273466 72.3552165,151.273466 C71.460458,151.295591 70.5995431,150.93181 69.9927066,150.275183 C67.6301967,147.872075 67.2319192,142.031439 67.277178,139.935496 L67.277178,106.450086 L63.0002205,107.245099 L63.0002205,139.876773 C63.0002205,140.811817 62.9006511,149.127834 66.9332111,153.247448 C68.3497299,154.725592 70.3149656,155.554297 72.3642682,155.537628 C77.2522197,155.537628 79.7188248,150.035776 80.9317609,142.261812 C81.3186468,142.910084 81.7921802,143.502754 82.3393099,144.023489 C83.6829693,145.289274 85.5371974,145.864472 87.3630378,145.581895 C89.5173571,145.274731 91.196459,143.878941 92.4999127,141.674587 L92.4999127,148.38251 L96.7768702,147.501671 L96.7768702,121.948324 C96.9579054,114.472491 98.5419638,102.890595 103.226251,101.987171 C104.217419,101.792935 104.656429,102.041377 104.927982,102.280784 C107.145664,104.209594 106.711179,112.051314 106.475833,116.283856 C106.398893,117.638992 106.335531,118.799892 106.335531,119.730418 C106.335531,125.421989 106.620661,131.723372 110.001494,134.474298 C111.446563,135.6346 113.352666,136.052529 115.151947,135.603578 C119.474163,134.700154 121.189472,130.363718 121.782363,125.182582 C123.647026,127.441142 125.995958,128.755624 128.679805,128.755624 C131.481326,128.755624 133.916249,127.346282 135.817119,124.893486 L135.817119,139.375373 L135.817119,139.375373 L135.817119,146.733761 L135.817119,146.733761 C135.875316,150.602752 135.665115,154.471123 135.188022,158.311139 C134.178751,165.317192 131.807189,169.766555 127.946612,171.921221 C125.117475,173.400479 121.823054,173.724424 118.759074,172.824645 C116.012831,172.102677 113.670605,170.313213 112.255383,167.855814 C110.5446,164.766104 110.25947,161.87063 111.381888,159.002259 C113.432112,153.753365 119.81813,149.805402 125.131515,147.804318 C127.847043,146.9551 130.671193,146.175144 133.603964,145.46445 L133.603964,141.078327 C130.60783,141.776975 127.721827,142.547896 124.945953,143.391092 L124.945953,143.345921 C124.547676,143.476918 124.140347,143.621465 123.733017,143.775047 C111.733948,147.476359 100.332155,152.88477 89.8794276,159.833409 C73.8125501,170.597705 66.2000183,181.063872 65.8922584,181.515584 L69.368135,184 C69.5627479,183.73349 82.3438358,166.35613 109.354293,153.875327 C108.550187,154.979023 107.888718,156.179504 107.385535,157.448369 C105.796951,161.513777 106.172599,165.705664 108.498902,169.91562 C110.464306,173.364492 113.732842,175.883145 117.573293,176.908122 C119.107831,177.349188 120.696884,177.572715 122.293787,177.572138 C124.989585,177.591773 127.646262,176.928112 130.01494,175.643328 C135.138237,172.797543 138.220362,167.322793 139.424247,158.907399 C140.053344,154.53031 140.107655,150.117084 140.107655,145.608998 L140.107655,144.023489 C148.31696,142.454739 156.643541,141.575341 165,141.394525 L164.900431,137.125847 C156.580212,137.313326 148.288862,138.172882 140.107655,139.696088 Z M128.693383,124.46436 C125.796819,124.46436 122.755427,120.683531 121.868354,113.623272 C121.841199,113.148975 121.81857,112.683711 121.791414,112.236516 C121.705423,110.727798 121.633009,109.426868 121.628483,108.460204 C121.845725,99.1684886 125.452852,92.3205348 128.693383,92.3205348 C132.042535,92.3205348 135.789964,99.6066492 135.789964,109.350077 C135.789964,119.17933 132.133052,124.46436 128.693383,124.46436 Z" id="Shape" fill="#00C29A"></path>
                <polygon id="Shape" fill="#FFFFFF" points="67.2487198 84.625111 67.2487198 96.6579805 64.7556693 97 64.7556693 84.9360379 63 85.1581285 63 82.7639917 69 82 69 84.3852532"></polygon>
                <polygon id="Shape" fill="#FFFFFF" points="95.2443307 74.6094891 95.2443307 86.6624088 92.7556693 87 92.7556693 74.915146 91 75.1341241 91 72.729927 97 72 97 74.3905109"></polygon>
                <polygon id="Shape" fill="#FFFFFF" points="106.560541 92.3554163 106.560541 86.4601611 104.439459 86.7511191 104.439459 92.6553268 102 93 102 78.908684 104.439459 78.5953447 104.439459 84.4145031 106.560541 84.1324978 106.560541 78.3133393 109 78 109 92.0017905"></polygon>
                <polygon id="Shape" fill="#FFFFFF" points="117 84 117 69.6770034 121.944444 69 121.944444 71.3626036 119.25 71.7402518 119.25 75.2910654 121.630952 74.950261 121.630952 77.3128646 119.25 77.6582745 119.25 81.2919865 122 80.8821001 122 83.2262819"></polygon>
                <path d="M76,99.9672905 C73.6138728,100.292277 72,98.2024313 72,93.3908202 L72,92.641545 C72,87.8344476 73.6138728,85.3203132 76,85.0269222 C78.3861272,84.7335313 80,86.8324048 80,91.6033925 L80,92.3481541 C80,97.1281692 78.3861272,99.6423036 76,99.9672905 Z M77.3317919,91.9509479 C77.3317919,88.2181127 76.7953757,87.2476658 76,87.3514811 C75.2046243,87.4552963 74.6682081,88.5566407 74.6682081,92.2939896 L74.6682081,93.0432649 C74.6682081,96.7851275 75.2046243,97.7510607 76,97.6427317 C76.7953757,97.5344027 77.3317919,96.4285447 77.3317919,92.6776546 L77.3317919,91.9509479 Z" id="Shape" fill="#FFFFFF"></path>
            </g>
        </g>
    </g>
</svg>